<?xml version="1.0" standalone="no"?>
<!DOCTYPE svg PUBLIC "-//W3C//DTD SVG 1.1//EN" "http://www.w3.org/Graphics/SVG/1.1/DTD/svg11.dtd" >
<!--
2013-9-30: Created.
-->
<svg>
<metadata>
Created by iconfont
</metadata>
<defs>

<font id="iconfont" horiz-adv-x="1024" >
  <font-face
    font-family="iconfont"
    font-weight="500"
    font-stretch="normal"
    units-per-em="1024"
    ascent="896"
    descent="-128"
  />
    <missing-glyph />
    
    <glyph glyph-name="iconfontdelete" unicode="&#58895;" d="M768 428c-19.2 0-32-12.8-32-32l0-377.6c0-25.6-19.2-38.4-38.4-38.4L326.4-20c-25.6 0-38.4 19.2-38.4 38.4L288 396C288 415.2 275.2 428 256 428S224 415.2 224 396l0-377.6c0-57.6 44.8-102.4 102.4-102.4l364.8 0c57.6 0 102.4 44.8 102.4 102.4L793.6 396C800 415.2 787.2 428 768 428zM460.8 76l0 320C460.8 415.2 448 428 435.2 428S396.8 415.2 396.8 396l0-320c0-19.2 12.8-32 32-32S460.8 56.8 460.8 76zM627.2 76l0 320C627.2 415.2 608 428 588.8 428S563.2 415.2 563.2 396l0-320C563.2 56.8 576 44 588.8 44S627.2 56.8 627.2 76zM832 556l-160 0L672 600.8C672 645.6 633.6 684 588.8 684L435.2 684C390.4 684 352 645.6 352 600.8L352 556 192 556C172.8 556 160 543.2 160 524S172.8 492 192 492l640 0c19.2 0 32 12.8 32 32S851.2 556 832 556zM416 600.8C416 613.6 422.4 620 435.2 620l153.6 0c12.8 0 19.2-6.4 19.2-19.2L608 556l-192 0L416 600.8z"  horiz-adv-x="1024" />

    
    <glyph glyph-name="jianhao" unicode="&#59119;" d="M143.558603 408.185842l736.882793 0 0-61.398372-736.882793 0 0 61.398372Z"  horiz-adv-x="1024" />

    
    <glyph glyph-name="icon10" unicode="&#58891;" d="M813.961 429.019h-262.867v262.867c0 21.593-17.503 39.258-39.258 39.258-21.593 0-39.258-17.503-39.258-39.258v-262.867h-262.703c-21.592 0-39.258-17.503-39.258-39.258 0-21.593 17.503-39.258 39.258-39.258h262.867v-262.867c0-21.592 17.503-39.258 39.258-39.258 21.593 0 39.258 17.503 39.258 39.258v263.031h262.867c21.593 0 39.258 17.503 39.258 39.258-0.163 21.592-17.665 39.094-39.422 39.094v0M813.961 429.019v0z"  horiz-adv-x="1024" />

    
    <glyph glyph-name="gouxuan" unicode="&#58905;" d="M511.322571 832.379007c-246.971881 0-447.189925-200.206788-447.189925-447.184809s200.218044-447.184809 447.189925-447.184809c246.978021 0 447.189925 200.206788 447.189925 447.184809S758.300592 832.379007 511.322571 832.379007L511.322571 832.379007zM767.82041 501.195166L478.605426 211.968925l-0.011256-0.016373c-13.331633-13.331633-33.667797-15.410991-49.185212-6.249331-2.87856 1.699712-5.584182 3.790326-8.055466 6.249331-0.005117 0.005117-0.005117 0.005117-0.005117 0.005117L254.825756 378.480286c-15.796778 15.808034-15.796778 41.432645 0 57.245795 15.808034 15.808034 41.437761 15.808034 57.245795 0l137.90279-137.90279 260.611529 260.611529c15.802918 15.802918 41.437761 15.802918 57.240679 0C783.628444 542.621671 783.628444 516.998083 767.82041 501.195166L767.82041 501.195166zM767.82041 501.195166"  horiz-adv-x="1024" />

    
    <glyph glyph-name="checkbox" unicode="&#59190;" d="M512 789.333333A405.333333 405.333333 0 1 0 106.666667 384 405.333333 405.333333 0 0 0 512 789.333333m0 64a469.333333 469.333333 0 1 1 469.333333-469.333333A469.333333 469.333333 0 0 1 512 853.333333zM512 789.333333A405.333333 405.333333 0 1 0 106.666667 384 405.333333 405.333333 0 0 0 512 789.333333m0 64a469.333333 469.333333 0 1 1 469.333333-469.333333A469.333333 469.333333 0 0 1 512 853.333333z"  horiz-adv-x="1024" />

    
    <glyph glyph-name="selectfill" unicode="&#58976;" d="M512 768C300.8 768 128 595.2 128 384s172.8-384 384-384 384 172.8 384 384S723.2 768 512 768zM729.6 486.4l-256-256c-6.4-6.4-12.8-6.4-25.6-6.4s-19.2 0-25.6 6.4l-128 128c-12.8 12.8-12.8 32 0 44.8s32 12.8 44.8 0L448 300.8l230.4 230.4c12.8 12.8 32 12.8 44.8 0S736 499.2 729.6 486.4z"  horiz-adv-x="1024" />

    
    <glyph glyph-name="triangle-down" unicode="&#58960;" d="M512-136.191l480 608.448h-960.001l480-608.448z"  horiz-adv-x="1024" />

    
    <glyph glyph-name="yey2-copy" unicode="&#59139;" d="M692.305 409.612c4.303 4.373 8.501 8.91 12.582 13.619 32.314-13.014 143.113-48.397 253.915 23.683 0 0-163.335-24.693-208.118 45.415 0.194 0.388 0.396 0.767 0.59 1.156 0 0-0.277-0.284-0.805-0.818-0.172 0.272-0.349 0.542-0.516 0.818l-6.087-7.395c-19.635-19.302-53.807-57.456-111.797-84.19-52.463-24.187-122.704-34.045-180.415-33.725-142.669 0.796-203.471 79.158-237.353 101.89-30.979 16.759-33.673 27.944-73.284 9.154-52.712-25.006-77.173-88.337-77.173-88.337 77.173 31.653 132.324 7.5 146.615-2.44 0.839-0.614 1.673-1.233 2.518-1.839 0.001 0 0.008-0.006 0.008-0.006h0.001c11.332-8.117 23.194-15.531 35.518-22.249-5.67-32.031-43.716-49.422-43.716-49.422 53.851 8.357 68.874 20.703 79.456 32.452 11.996-4.909 24.342-9.216 36.991-12.912-3.811-39.079-44.679-67.963-44.679-67.963 54.651 9.475 74.792 42.987 81.439 59.106 14.388-2.757 29.094-4.772 44.063-6.032 11.357-31.476-6.083-74.785-6.083-74.785 27.882 22.267 40.908 59.333 44.994 73.225 13.286 0.030 26.246 0.52 38.885 1.472 6.459-14.147 24.996-50.797 52.653-72.883 0 0-18.418 35.052-10.157 78.076 10.127 1.746 20.020 3.832 29.657 6.288 9.101-13.409 38.175-45.149 112.465-51.927 0 0-60.956 19.512-59.339 70.271 9.117 4.072 17.958 8.554 26.509 13.462 14.896-13.27 68.733-50.659 195.507-42.018 0 0.001-111.865 16.852-134.845 88.853z"  horiz-adv-x="1024" />

    
    <glyph glyph-name="zhengyan" unicode="&#58890;" d="M512 114.2c-85.4 0-169.8 26.1-244 75.5-68 45.3-124.2 108.7-158.3 178.5L102 384l7.7 15.8C143.8 469.6 200 533 268 578.3c74.2 49.4 158.6 75.5 244 75.5 85.5 0 169.8-26.1 244-75.5 68-45.3 124.2-108.7 158.3-178.5L922 384l-7.7-15.8C880.3 298.4 824 235 756 189.7c-74.2-49.4-158.5-75.5-244-75.5zM182.8 384c56-100.8 176-197.6 329.2-197.6S785.2 283.2 841.2 384c-56 100.8-176 197.6-329.2 197.6S238.8 484.8 182.8 384zM512 248.2c-74.9 0-135.8 60.9-135.8 135.8S437.1 519.8 512 519.8 647.8 458.9 647.8 384 586.9 248.2 512 248.2z m0 207.5c-39.5 0-71.7-32.2-71.7-71.7s32.2-71.7 71.7-71.7 71.7 32.2 71.7 71.7-32.2 71.7-71.7 71.7z"  horiz-adv-x="1024" />

    
    <glyph glyph-name="shanchu" unicode="&#59096;" d="M512 742.4c-198.1952 0-358.4-160.2048-358.4-358.4s160.2048-358.4 358.4-358.4 358.4 160.2048 358.4 358.4-160.2048 358.4-358.4 358.4z m150.528-508.928a25.7536 25.7536 0 0 0-35.84 0L512 348.16l-114.688-114.688a25.7536 25.7536 0 0 0-35.84 0 25.7536 25.7536 0 0 0 0 35.84L476.16 384 361.472 498.688a25.7536 25.7536 0 0 0 0 35.84 25.7536 25.7536 0 0 0 35.84 0L512 419.84l114.688 114.688a25.7536 25.7536 0 0 0 35.84 0 25.7536 25.7536 0 0 0 0-35.84L547.84 384l114.688-114.688a22.528 22.528 0 0 0 0-35.84z"  horiz-adv-x="1024" />

    
    <glyph glyph-name="qq" unicode="&#58888;" d="M512 874.8c-270.8 0-490.4-219.6-490.4-490.4s219.6-490.6 490.4-490.6 490.4 219.6 490.4 490.4-219.6 490.6-490.4 490.6zM718 278c-19-1.8-22.2 25.6-35 33.8-5.4-26.6-18.2-45.6-36.4-59.6 17-13 48.2-17.2 46.6-45.4-1.8-34.2-64-43.4-109-40.2-33 2.4-52.6 14.4-71.4 27.2-10.4-3.8-21.2-13.6-32.4-18.2-46-19-146.4-11.4-150.4 29.8-2.8 29.2 30.2 34.4 48 46.6-18.4 13.2-32.2 30.8-36.4 58.4-13.4-3.6-16.4-33-35-32.4-19.8 0.6-22.8 41.6-20.8 67.4 3 39.6 31.8 70.4 46.6 90.8-0.8 22.4 0.8 42.6 10.4 54.4 0.4 57.8 20.4 91.8 49.2 120.6 29.2 29.2 73.6 51.4 118 51.8 53 0.6 94.6-25.2 120.6-50.6 23.2-22.8 38.4-47 45.4-83 2.2-10.8 0.8-24 3.8-37.6 1.2-5.6 7.2-11.6 9-19.4 2.4-10-1.2-22.4 1.2-33.8 1.8-8.6 9.8-15 14.2-20.8 12.8-16.4 29.8-43.4 32.4-68.8 3.8-28-0.4-69.4-18.6-71z"  horiz-adv-x="1024" />

    
    <glyph glyph-name="zhifubao" unicode="&#58889;" d="M907.715 222.484c22.143 51.926 34.293 108.76 34.293 168.521 0 237.687-193.406 431.093-431.093 431.093S79.822 628.692 79.822 391.005s193.407-431.093 431.093-431.093c143.441 0 270.619 70.545 349.19 178.51-74.074 36.845-196.353 97.583-271.594 134.229-35.86-40.951-88.773-81.912-148.725-99.736-37.832-11.177-71.721-15.481-107.18-8.229-35.095 7.244-60.947 23.71-76.046 40.167-7.826 8.429-16.648 19.013-22.925 31.746l0.995-2.545c0.382-0.785-3.731 6.459-6.468 16.457-1.569 4.899-2.564 10.189-2.947 15.28a105.158 105.158 0 0 0 0 10.974c-0.382 6.468-0.191 13.329 1.378 20.188 3.521 17.04 10.774 37.027 29.584 55.446 41.334 40.367 96.598 42.529 125.226 42.328 42.52-0.19 116.192-18.811 178.309-40.759 17.242 36.645 28.397 75.835 35.457 102.09H336.912v27.833h132.669v55.838H308.878v28.025h160.703v55.848c0 7.635 1.358 13.912 13.893 13.912h62.917v-69.76h174.387v-28.025H546.392v-55.838h139.501S672 405.702 628.105 328.689c97.17-34.684 234.145-88.177 279.61-106.205zM273.821 336.726c-10.2-8.229-21.164-20.179-24.302-35.468-4.325-20.772-0.785-46.635 19.212-67.015 24.284-24.885 61.12-31.545 77.003-32.722 43.285-3.139 89.556 18.217 124.23 42.711 13.701 9.607 37.028 29.01 59.168 58.786-49.963 25.87-112.27 54.277-178.901 51.542-34.081-1.377-58.574-8.428-76.41-17.834z"  horiz-adv-x="1024" />

    
    <glyph glyph-name="youxiang" unicode="&#60465;" d="M511.6 832.1c-247.3 0-447.8-200.5-447.8-447.8s200.5-447.8 447.8-447.8S959.4 137 959.4 384.3c-0.1 247.3-200.5 447.8-447.8 447.8z m235.6-589.2c0-25.9-21.2-47.1-47.1-47.1H323c-25.9 0-47.1 21.2-47.1 47.1l0.2 232.8 229.8-125.4c3.5-1.9 7.8-1.9 11.3 0l230 125.5v-232.9zM511.7 394.7L276.1 526.1c0.2 25.8 21.1 46.6 46.9 46.7h377.1c25.8-0.1 46.7-20.8 47.1-46.6L511.7 394.7z"  horiz-adv-x="1024" />

    
    <glyph glyph-name="icon-test1" unicode="&#58959;" d="M128 640h64V704H128zM320 640h576V704H320zM128 352h64v64H128zM320 352h576v64H320zM128 64h64v64H128zM320 64h576v64H320z"  horiz-adv-x="1024" />

    
    <glyph glyph-name="left" unicode="&#58945;" d="M704.84103 785.11454c7.856945 0 15.712867-2.997264 21.707394-8.991792 11.988032-11.989055 11.988032-31.425733 0-43.414789L381.229654 387.388167l352.095104-352.095104c11.989055-11.989055 11.989055-31.426757 0-43.415812s-31.426757-11.989055-43.415812 0L294.399053 387.388167l388.734582 388.734582C689.128163 782.117276 696.985108 785.11454 704.84103 785.11454z"  horiz-adv-x="1024" />

    
    <glyph glyph-name="left1" unicode="&#58887;" d="M702.3816269859672 384.1174141941591l-33.10658589284864 33.1274284925312-0.14173022098839289-0.1403411217033862L354.7249589068816 731.5385600142183l-33.10658589284869-33.10658589284864 314.4118260713292-314.43197412136965L321.6183730140326 69.56524700112652l33.10658589284865-33.10311178676787 314.40835196524887 314.43127889279253 0.1417302209883927-0.1403411217033864 33.106585892848685 33.13090259861198-0.11741419415920966 0.11671896558254967L702.3816269859672 384.1174141941591zM702.3816269859672 384.1174141941591"  horiz-adv-x="1024" />

    
    <glyph glyph-name="shouhuodizhi" unicode="&#58893;" d="M509.170041-97.442618C502.163221-97.442618 495.471005-94.536952 490.691567-89.416489 475.764326-73.461126 125.180531 303.812255 125.180531 509.509189 125.180531 721.254035 297.431485 893.525124 509.16752 893.525124 720.903558 893.525124 893.16458 721.254036 893.16458 509.509189 893.16458 303.812255 542.574493-73.462384 527.651027-89.415227 522.867814-94.53821 516.176856-97.442618 509.170041-97.442618L509.170041-97.442618ZM509.170041 842.919485C325.346761 842.919485 175.789945 693.360153 175.789945 509.510448 175.789945 348.605305 436.644183 46.385922 509.170041-34.519674 581.694636 46.406058 842.561457 348.702201 842.561457 509.510448 842.561457 693.362669 692.994577 842.919485 509.170041 842.919485L509.170041 842.919485ZM509.170041 346.745377C427.759818 346.745377 361.518454 412.982966 361.518454 494.404512 361.518454 575.84871 427.759818 642.085041 509.170041 642.085041 590.590325 642.085041 656.830431 575.844935 656.830431 494.404512 656.829176 412.982966 590.591584 346.745377 509.170041 346.745377L509.170041 346.745377ZM509.170041 591.481917C455.661251 591.481917 412.124094 547.939724 412.124094 494.404512 412.124094 440.896981 455.661254 397.348497 509.170041 397.348497 562.686378 397.348497 606.224794 440.896981 606.224794 494.404512 606.224794 547.939728 562.687637 591.481917 509.170041 591.481917L509.170041 591.481917Z"  horiz-adv-x="1024" />

    
    <glyph glyph-name="guanyu" unicode="&#58880;" d="M516.422-104.727c267.435 0 484.305 216.598 484.305 483.822 0 267.441-216.881 484.28-484.305 484.281-267.523 0-484.305-216.778-484.305-484.281 0-267.269 216.779-483.822 484.305-483.822zM516.422-58.182c-241.831 0-437.76 195.723-437.76 437.276 0 241.797 195.942 437.734 437.76 437.734 241.72 0 437.76-196.003 437.76-437.734 0-241.504-196.018-437.276-437.76-437.276zM563.827 240.062h-95.271v395.604h95.271v-395.604zM516.238 102.269c-26.334 0-47.636 21.312-47.636 47.63 0 26.272 21.325 47.607 47.636 47.607 26.311 0 47.59-21.335 47.59-47.607 0-26.319-21.279-47.63-47.59-47.63z"  horiz-adv-x="1024" />

    
    <glyph glyph-name="youhuiquan" unicode="&#58885;" d="M963.563 477.594c26.899 7.844 46.919 34.493 46.919 62.857v191.274c0 39.601-28.501 68.352-67.772 68.352h-862.722c-39.27 0-67.772-28.75-67.772-68.352v-187.186c0-30.35 17.15-55.317 42.916-62.857 40.403-16.349 65.452-54.515 65.452-99.973 0-43.33-26.87-84.231-65.479-99.945-25.74-7.539-42.89-32.532-42.89-62.828v-191.302c0-39.601 28.501-68.324 67.772-68.324h858.719c20.575 0 38.469 7.732 50.373 21.79 11.046 13.035 15.742 30.185 13.34 48.523v112.454c0 0 0 0 0 0 0 15.252-12.364 27.616-27.616 27.616-15.252 0-27.616-12.364-27.616-27.616 0 0 0 0 0 0v-114.471l0.387-4.474c0.47-2.899 0.25-5.302-0.58-6.324-0.967-1.132-3.921-2.292-8.285-2.292h-858.719c-6.213 0-12.539 1.548-12.539 13.090v191.302c0 5.966 2.292 9.637 3.259 9.831l3.23 1.051c60.923 23.778 101.851 84.812 101.851 151.892 0 69.181-39.024 127.397-101.851 151.921l-3.259 1.076c-0.911 0.221-3.204 3.977-3.204 9.831v187.186c0 11.542 6.324 13.119 12.539 13.119h862.693c6.213 0 12.539-1.548 12.539-13.119v-191.274c0-3.894-3.755-8.948-7.29-9.86l-3.23-1.051c-63.794-24.882-101.851-80.173-101.851-147.861 0-67.136 38.112-126.651 97.102-151.589 3.179-1.382 6.88-2.187 10.771-2.187 15.255 0 27.62 12.367 27.62 27.62 0 11.364-6.863 21.127-16.673 25.365-38.704 16.364-63.558 55.883-63.558 100.786-0.027 44.325 23.806 79.205 65.424 95.941zM670.741 594.053c-5.347 5.719-12.939 9.283-21.361 9.283s-16.014-3.565-21.346-9.266l-116.089-117.387-116.047 117.371c-5.342 5.717-12.93 9.282-21.348 9.282s-16.004-3.565-21.333-9.265c-5.649-5.515-9.145-13.183-9.145-21.668 0-8.484 3.494-16.153 9.123-21.646l115.998-117.323h-88.541c-18.31 0-30.516-12.372-30.516-30.93s12.207-30.93 30.516-30.93h100.801v-52.389h-100.801c-18.31 0-30.516-12.345-30.516-30.849 0-18.615 12.207-30.959 30.516-30.959h100.801v-70.919c0-18.615 12.179-30.959 30.489-30.959s30.516 12.345 30.516 30.959v70.919h94.724c18.283 0 30.489 12.345 30.489 30.959 0 18.502-12.179 30.849-30.489 30.849h-94.724v52.389h94.724c18.283 0 30.489 12.372 30.489 30.93s-12.179 30.93-30.489 30.93h-82.464l116.018 117.316c5.635 5.498 9.129 13.166 9.129 21.651s-3.494 16.153-9.123 21.646z"  horiz-adv-x="1024" />

    
    <glyph glyph-name="naozhong" unicode="&#58935;" d="M512-69.818182C260.654545-69.818182 58.181818 132.654545 58.181818 384S260.654545 837.818182 512 837.818182 965.818182 635.345455 965.818182 384 763.345455-69.818182 512-69.818182z m0 837.818182C300.218182 768 128 595.781818 128 384S300.218182 0 512 0 896 172.218182 896 384 723.781818 768 512 768zM505.018182 332.8c-18.618182 0-34.909091 16.290909-34.909091 34.909091v256c0 18.618182 16.290909 34.909091 34.909091 34.909091s34.909091-16.290909 34.909091-34.909091v-256c0-20.945455-16.290909-34.909091-34.909091-34.909091zM681.890909 232.727273l-2.327273-4.654546c-11.636364-13.963636-30.254545-16.290909-44.218181-4.654545l-151.272728 118.690909c-13.963636 11.636364-16.290909 30.254545-4.654545 44.218182l2.327273 4.654545c11.636364 13.963636 30.254545 16.290909 44.218181 4.654546l151.272728-118.690909c11.636364-9.309091 13.963636-30.254545 4.654545-44.218182z"  horiz-adv-x="1024" />

    
    <glyph glyph-name="naozhong1" unicode="&#59002;" d="M658.432 368.64h-186.88v186.88c0 14.336 11.264 25.6 25.6 25.6s25.6-11.264 25.6-25.6V419.84h135.68c14.336 0 25.6-11.264 25.6-25.6 0-13.824-11.264-25.6-25.6-25.6zM254.464 702.464c-15.36 8.192-33.28 12.8-51.712 12.8-61.44 0-111.104-49.664-111.104-111.104 0-31.232 12.8-59.392 33.792-79.872 22.016 73.216 68.096 135.168 129.024 178.176zM741.888 702.464c15.36 8.192 33.28 12.8 51.712 12.8 61.44 0 111.104-49.664 111.104-111.104 0-31.232-12.8-59.392-33.792-79.872-22.016 73.216-68.096 135.168-129.024 178.176zM735.232 163.84C799.744 225.792 839.68 312.832 839.68 409.6c0 188.416-152.576 340.992-340.992 340.992S157.696 598.016 157.696 409.6c0-97.792 40.96-185.344 107.008-247.808l-55.296-80.896c-8.192-11.776-5.12-27.648 6.656-35.84 4.096-2.56 9.216-4.096 14.336-4.096 8.192 0 16.384 4.096 20.992 11.264l52.736 77.312c55.296-38.4 122.368-60.928 194.56-60.928 73.216 0 141.312 23.04 196.608 62.464l53.76-78.848c5.12-7.168 12.8-11.264 20.992-11.264 5.12 0 10.24 1.536 14.336 4.608 11.776 8.192 14.848 24.064 6.656 35.84L735.232 163.84zM208.896 409.6c0 159.744 130.048 289.792 289.792 289.792C658.432 699.392 788.48 569.344 788.48 409.6c0-159.744-130.048-289.792-289.792-289.792-159.744 0-289.792 130.048-289.792 289.792z"  horiz-adv-x="1024" />

    
    <glyph glyph-name="quanyiqia" unicode="&#59008;" d="M263.90016 690.59072h492.94336c64.6912 0 117.13536-52.44416 117.13536-117.13536v-378.12224c0-64.6912-52.44416-117.13536-117.13536-117.13536H263.90016c-64.6912 0-117.13536 52.44416-117.13536 117.13536V573.45536c0 64.6912 52.43904 117.13536 117.13536 117.13536z m4.31616-46.2848c-40.16128 0-72.82688-32.3584-73.20576-72.5248l-3.51744-373.34016v-0.6912c0-40.43264 32.77312-73.21088 73.20576-73.21088h490.24c40.43264 0 73.216 32.77824 73.216 73.216V571.0848c0 40.43264-32.78336 73.216-73.216 73.216H268.21632zM190.39744 559.6928h639.9488v-43.63264H190.39744zM408.56064 443.3408v-43.63776h-218.1632V443.3408h218.1632z m218.1632 0h203.6224v-43.63776h-203.6224V443.3408zM394.22464 443.3408h43.7504a81.3568 81.3568 0 0 1-0.32768-7.2704c0-44.1856 35.8144-80 79.99488-80s79.99488 35.8144 79.99488 79.99488c0 2.4576-0.11264 4.87936-0.32768 7.2704h43.7504c0.13824-2.4064 0.20992-4.83328 0.20992-7.2704 0-68.2752-55.3472-123.62752-123.62752-123.62752s-123.62752 55.3472-123.62752 123.62752c0 2.44224 0.07168 4.864 0.20992 7.2704z"  horiz-adv-x="1024" />

    
    <glyph glyph-name="yue" unicode="&#58884;" d="M612.333 584.287l86.092 117.893c3.887 5.328 4.267 12.193 0.967 17.863-3.3 5.65-9.728 9.178-16.725 9.178H575.412l-49.967 64.588c-3.603 4.627-9.387 7.831-15.607 7.32-6.2-0.039-11.984-2.845-15.493-7.548l-48.26-64.38H341.333c-7.073 0-13.577-3.621-16.839-9.386-3.261-5.765-2.75-12.705 1.328-18.015l87.419-113.702c-151.06-25.675-280.5-170.022-280.5-310.101v-31.573c0-154.416 137.955-279.61 308.148-279.61H583.11c170.193 0 308.148 125.194 308.148 279.61v31.573c0 133.898-132.703 271.91-278.926 306.29z m-234.44 110.175h78.147c6.24 0 12.099 2.806 15.626 7.528l38.533 51.39 39.936-51.618c3.565-4.589 9.31-7.32 15.454-7.32h81.541l-75.548-103.461c-9.008 0.872-18.015 1.555-27.004 1.555h-84.442c-1.251 0-2.484-0.19-3.754-0.209l-78.488 102.135z m475.44-448.038c0-135.017-121.23-244.85-270.222-244.85H440.89c-148.992 0-270.222 109.833-270.222 244.85v31.573c0 138.581 146.09 279.799 289.488 279.799h84.442c150.035 0 308.736-143.816 308.736-279.799v-31.573z m-194.256 49.512c10.41 0 18.849 7.623 18.849 17.048 0 9.405-8.439 17.047-18.85 17.047h-77.861l56.85 92.331c5.064 8.23 1.783 18.603-7.3 23.173-9.083 4.589-20.575 1.63-25.638-6.6l-67.053-108.923h-23.97l-67.052 108.924c-5.063 8.23-16.574 11.188-25.638 6.599-9.083-4.59-12.364-14.962-7.3-23.173l56.85-92.33h-82.356c-10.41 0-18.85-7.643-18.85-17.048 0-9.406 8.44-17.048 18.85-17.048h116.376v-66.977H388.608c-10.41 0-18.85-7.642-18.85-17.048 0-9.406 8.44-17.048 18.85-17.048h116.376v-79.189c0-9.406 8.438-17.048 18.849-17.048s18.85 7.642 18.85 17.048v79.19h116.394c10.41 0 18.849 7.623 18.849 17.047 0 9.406-8.439 17.048-18.85 17.048H542.683v66.977h116.395z"  horiz-adv-x="1024" />

    
    <glyph glyph-name="lajitong" unicode="&#58882;" d="M463.943 236.942V521.88c0 12.9-10.455 23.355-23.356 23.355-12.9 0-23.355-10.455-23.355-23.355v-284.94c0-12.899 10.456-23.354 23.355-23.354 12.902 0 23.356 10.455 23.356 23.355z m-42.04 457.77h177.502c12.9 0 23.356 10.456 23.356 23.356s-10.456 23.356-23.356 23.356H421.903c-12.9 0-23.355-10.455-23.355-23.356s10.454-23.356 23.355-23.356z m289.61-112.106c-11.3 0-20.72-8.024-22.886-18.685h-0.47v-369.019c0-10.318-8.367-18.685-18.685-18.685H351.837c-10.319 0-18.685 8.367-18.685 18.685v369.02h-0.47c-2.167 10.66-11.586 18.684-22.886 18.684s-20.719-8.024-22.886-18.685h-0.47v-406.387c0-15.478 12.55-28.027 28.027-28.027h392.375c15.477 0 28.026 12.55 28.026 28.027V563.92h-0.47c-2.166 10.66-11.587 18.685-22.886 18.685zM604.075 236.942V521.88c0 12.9-10.454 23.355-23.355 23.355-12.899 0-23.355-10.455-23.355-23.355v-284.94c0-12.899 10.456-23.354 23.355-23.354 12.9 0 23.355 10.455 23.355 23.355zM776.91 666.686H244.4c-12.9 0-23.356-10.456-23.356-23.357s10.455-23.356 23.356-23.356h532.508c12.9 0 23.355 10.456 23.355 23.356s-10.456 23.357-23.355 23.357z"  horiz-adv-x="1024" />

    
    <glyph glyph-name="jiangbei" unicode="&#58883;" d="M853.333333 695.466667h-85.333333v25.6c0 25.6-21.333333 46.933333-51.2 46.933333H311.466667c-29.866667 0-51.2-21.333333-51.2-46.933333v-25.6h-85.333334c-25.6 0-46.933333-21.333333-46.933333-46.933334v-98.133333c0-72.533333 59.733333-132.266667 132.266667-132.266667 12.8-115.2 102.4-209.066667 217.6-226.133333v-115.2h-85.333334c-25.6 0-46.933333-21.333333-46.933333-46.933333v-21.333334c0-8.533333 4.266667-12.8 12.8-12.8h311.466667c8.533333 0 12.8 4.266667 12.8 12.8v21.333334c0 25.6-21.333333 46.933333-46.933334 46.933333h-85.333333v115.2c115.2 17.066667 204.8 110.933333 217.6 226.133333 72.533333 0 132.266667 59.733333 132.266667 132.266667V648.533333c0 25.6-21.333333 46.933333-46.933334 46.933334zM260.266667 494.933333c-29.866667 0-59.733333 25.6-59.733334 59.733334V622.933333h59.733334v-128z m366.933333 34.133334l-46.933333-51.2 12.8-72.533334c0-4.266667 0-12.8-4.266667-17.066666-4.266667 0-4.266667-4.266667-8.533333-4.266667h-8.533334l-59.733333 34.133333-59.733333-34.133333c-4.266667-4.266667-12.8-4.266667-17.066667 0-4.266667 4.266667-8.533333 8.533333-4.266667 17.066667l12.8 72.533333-55.466666 55.466667C384 533.333333 384 537.6 384 541.866667s8.533333 12.8 12.8 12.8l68.266667 8.533333 29.866666 64c4.266667 4.266667 8.533333 8.533333 12.8 8.533333s12.8-4.266667 12.8-8.533333l29.866667-64 68.266667-8.533333c4.266667 0 8.533333-4.266667 12.8-8.533334 0-8.533333 0-12.8-4.266667-17.066666z m200.533333 21.333333c0-34.133333-25.6-59.733333-59.733333-59.733333V622.933333h59.733333v-72.533333z m0 0"  horiz-adv-x="1024" />

    
    <glyph glyph-name="integral" unicode="&#59146;" d="M930.5 491.3H93c-9.6 0-18.6 4.8-23.9 12.8-5.4 8-6.4 18.2-2.7 27.1l78.9 190.5c9 23.5 31.3 39.2 56.5 39.9h620c25.1-0.6 47.4-16.4 56.3-39.9l79.1-190.5c3.7-8.9 2.7-19.1-2.7-27.1-5.4-7.9-14.4-12.7-24-12.8z m-794.3 57.6h751.1l-62.4 150.6c-0.5 1.9-1.8 3.5-3.5 4.5H202.2c-1.5-1.1-2.6-2.7-3.2-4.5l-62.8-150.6z m0 0M573.3 491.3H422.7c-7.4 0-14.5 2.8-19.9 7.9L179.5 712c-11.5 11-12 29.2-1 40.8 11 11.5 29.2 12 40.8 1l215-204.8h128.2l227 201.8c11.9 10.5 30.1 9.4 40.7-2.5 10.5-11.9 9.4-30.1-2.5-40.7l-235-208.8c-5.5-4.8-12.3-7.4-19.4-7.5z m0 0M518 6.600000000000023c-18.2-0.1-35.5 8.3-46.7 22.8L71 501.6c-7.2 8.6-8.8 20.6-4.1 30.7C71.6 542.5 81.8 549 93 549h837.5c10.9-0.2 20.8-6.5 25.5-16.4 4.7-9.9 3.4-21.5-3.3-30.1L565.3 30a58.586 58.586 0 0 0-46.8-23.3l-0.5-0.1zM155.3 491.3L515.4 66l0.9-1.2c0.5-0.2 1-0.2 1.4 0 0.5-0.1 1-0.1 1.4 0l0.9 1.3 349.7 425.1H155.3z m0 0"  horiz-adv-x="1024" />

    
    <glyph glyph-name="bangzhu666" unicode="&#58886;" d="M512-64C264.6-64 64 136.60000000000002 64 384S264.6 832 512 832s448-200.6 448-448-200.6-448-448-448z m0 59.7c214.4 0 388.3 173.8 388.3 388.3S726.4 772.3 512 772.3 123.7 598.4 123.7 384 297.6-4.2999999999999545 512-4.2999999999999545zM523.6 603c40.8 0 73.9-10.8 99.4-33.8 25.5-22.3 38.2-52.9 38.2-91.1 0-31.2-8.3-57.3-24.2-77.7-5.7-7-23.6-23.6-53.5-49.7-12.1-10.2-21-21.7-26.8-33.1-7-12.7-10.2-26.8-10.2-42.1v-10.8h-68.2v10.8c0 23.6 3.8 44 12.7 60.5 8.3 17.8 32.5 44 72 79l10.8 12.1c11.5 14.7 17.8 29.9 17.8 46.5 0 22.3-6.4 39.5-18.5 52.2-12.7 12.7-31.2 19.1-54.2 19.1-28.7 0-49.7-8.9-62.4-27.4-11.5-15.3-17.2-37-17.2-65h-66.9c0 46.5 13.4 82.8 40.1 109.6 27 27.5 64 40.9 111.1 40.9z m-11.4-372.7c13.4 0 24.8-3.8 33.8-12.7 8.9-8.3 13.4-19.1 13.4-32.5 0-13.4-5.1-24.2-14-33.1-8.9-8.3-20.4-12.7-33.1-12.7-12.7 0-24.2 4.5-33.1 13.4-8.9 8.9-13.4 19.8-13.4 32.5 0 13.4 4.5 24.2 13.4 32.5 8.7 8.8 20.2 12.6 33 12.6z"  horiz-adv-x="1024" />

    
    <glyph glyph-name="wujiaoxingxingxing" unicode="&#59009;" d="M737.792-14.694a57.242 57.242 0 0 0-26.726 6.656l-197.53 103.833-197.53-103.833a57.242 57.242 0 0 0-83.046 60.364l37.683 220.16-159.795 155.546a57.293 57.293 0 0 0 31.744 97.69l220.928 32.05 98.662 199.988a56.832 56.832 0 0 0 51.2 31.898 56.934 56.934 0 0 0 51.2-31.898l98.765-200.14 220.826-32.052a57.293 57.293 0 0 0 32.307-97.536l-159.795-155.75 37.734-220.16A57.395 57.395 0 0 0 738.1-14.9zM159.846 465.92l155.29-151.398a57.242 57.242 0 0 0 16.435-50.688l-36.659-213.556 192 100.916a57.088 57.088 0 0 0 53.3 0L732.16 50.278l-36.66 213.76a57.344 57.344 0 0 0 16.436 50.688l155.34 151.194-214.63 31.18a57.293 57.293 0 0 0-43.11 31.335l-96 194.56-96-194.56a57.242 57.242 0 0 0-43.11-31.334z m715.674-1.024z m-365.722 265.83z"  horiz-adv-x="1024" />

    
    <glyph glyph-name="shezhi" unicode="&#58933;" d="M881 384c0 52.4 32.9 96.8 79 114.5-11 43.2-28 83.9-50.2 121.3C864.6 599.7 810 607.9 773 645c-37 37-45.2 91.7-25.1 136.8C710.4 804 669.7 821 626.5 832c-17.8-46.1-62.2-79-114.5-79-52.4 0-96.8 32.9-114.5 79-43.2-11-83.9-28-121.3-50.2 20.1-45.2 11.9-99.8-25.1-136.8-37-37-91.7-45.2-136.8-25.2C92 582.4 75 541.7 64 498.5c46.1-17.8 79-62.2 79-114.5 0-52.4-32.9-96.8-79-114.5 11-43.2 28-83.9 50.2-121.3C159.4 168.3 214 160.1 251 123c37-37 45.2-91.7 25.1-136.8C313.6-36 354.3-53 397.5-64c17.8 46.1 62.2 79 114.5 79 52.4 0 96.8-32.9 114.5-79 43.2 11 83.9 28 121.3 50.2-20.1 45.2-11.9 99.8 25.1 136.8 37 37 91.7 45.2 136.8 25.2C932 185.6 949 226.3 960 269.5c-46.1 17.7-79 62.1-79 114.5zM512 261c-67.9 0-123 55.1-123 123s55.1 123 123 123 123-55.1 123-123-55.1-123-123-123z"  horiz-adv-x="1024" />

    
    <glyph glyph-name="sousuo" unicode="&#58894;" d="M794.688 442.688a341.312 341.312 0 1 0-682.688 0 341.312 341.312 0 0 0 682.688 0z m-96 0a245.312 245.312 0 1 1-490.624 0 245.312 245.312 0 0 1 490.624 0zM675.008 217.728l203.648-154.24a48 48 0 1 1 57.92 76.48l-203.584 154.24a48 48 0 1 1-57.984-76.48z"  horiz-adv-x="1024" />

    
    <glyph glyph-name="weixiao" unicode="&#58996;" d="M505.6 793.6C278.624 793.6 96 610.976 96 384s182.624-409.6 409.6-409.6c226.976 0 409.6 182.624 409.6 409.6S732.576 793.6 505.6 793.6z m0-785.056c-206.496 0-375.456 168.96-375.456 375.456S299.104 759.456 505.6 759.456 881.056 590.496 881.056 384 712.096 8.544 505.6 8.544zM718.944 286.72c-8.544 3.424-18.784 1.696-22.176-6.816-37.536-73.376-110.944-117.76-191.136-117.76-81.92 0-153.6 44.384-191.136 117.76-3.424 8.544-13.664 11.936-22.176 6.816-8.544-3.424-11.936-13.664-8.544-22.176C326.432 180.928 410.08 128 505.632 128c93.856 0 179.2 52.896 220.16 136.544 5.12 8.544 1.696 18.784-6.816 22.176zM420.256 469.344c0-28.288-22.912-51.2-51.2-51.2s-51.2 22.912-51.2 51.2c0 28.288 22.912 51.2 51.2 51.2s51.2-22.912 51.2-51.2zM693.344 469.344c0-28.288-22.912-51.2-51.2-51.2s-51.2 22.912-51.2 51.2c0 28.288 22.912 51.2 51.2 51.2s51.2-22.912 51.2-51.2z"  horiz-adv-x="1024" />

    
    <glyph glyph-name="fenlei" unicode="&#58901;" d="M55.49632 690.816h204.352a51.072 51.072 0 1 1 0 102.208H55.49632a51.072 51.072 0 1 1 0-102.208z m0-408.768h255.488a51.072 51.072 0 0 1 0 102.144H55.49632a51.072 51.072 0 0 1 0-102.144z m970.88 299.264c0 176.64-137.28 313.92-313.92 313.92-164.736 0-299.328-140.032-299.328-313.92 0-161.984 137.28-299.264 299.328-299.264 173.888 0 313.856 134.592 313.856 299.264z m-511.04 0c0 118.336 89.792 211.712 197.12 211.712 120.192 0 211.648-91.52 211.648-211.712 0-107.328-93.312-197.12-211.648-197.12-105.6 0-197.12 91.52-197.12 197.12zM55.49632-126.784h715.328a51.072 51.072 0 0 1 0 102.208H55.49632a51.072 51.072 0 0 1 0-102.208zM774.92032 312.96l153.28-357.632a51.2 51.2 0 1 1 94.08 40.256L868.87232 353.28a51.2 51.2 0 0 1-94.016-40.32z"  horiz-adv-x="1027" />

    
    <glyph glyph-name="shouye" unicode="&#58930;" d="M759.7-59.8H586.9c-18.1 0-32.1 13.9-32.1 32.1v276h-99v-276c0-18.1-13.9-32.1-32.1-32.1h-170c-53 0-96.2 43.2-96.2 96.2V317.9h-18.1c-41.8 0-75.3 33.5-75.3 75.3 0 19.5 7 37.6 20.9 51.6L409.7 789c53 55.7 140.8 58.5 197.9 5.6 1.4-2.8 2.8-4.2 5.6-5.6l324.7-344.2c29.3-29.3 27.9-76.7-1.4-105.9-13.9-13.9-33.4-20.9-53-20.9h-27.9v-281.5c0.2-53.1-43-96.3-95.9-96.3z m-139.4 64.1h139.4c18.1 0 33.4 15.3 33.4 33.4V349.9c0 18.1 13.9 32.1 32.1 32.1h59.9c4.2 0 8.4 2.8 9.8 7 1.4 4.2 1.4 8.4-2.8 12.5L565.9 744.3c-29.3 30.7-76.7 32.1-107.3 2.8-1.4 0-2.8-1.4-2.8-2.8L131.1 401.5c-4.2-4.2-4.2-11.1 0-15.3 2.8-2.8 5.6-2.8 8.4-2.8H191c18.1 0 32.1-13.9 32.1-32.1v-313.6c0-18.1 15.3-33.4 33.4-33.4h138V248.2c0 36.2 29.3 64.1 64.1 64.1h99c36.2 0 64.1-29.3 64.1-64.1l-1.4-243.9z"  horiz-adv-x="1024" />

    
    <glyph glyph-name="xiangshangjiantou-copy" unicode="&#58881;" d="M140.367 830.674h740.694v-51.438h-740.694v51.438zM155.026 372.159l36.334-36.41 293.636 293.015v-692.405h51.438v694.182l293.636-293.016 36.334 36.409-354.638 353.888z"  horiz-adv-x="1024" />

    
    <glyph glyph-name="shouji" unicode="&#58964;" d="M747.294-62.41H288.1c-34.171 0-61.928 27.875-61.928 62.108V768.664c0 34.298 27.757 62.172 61.928 62.172h459.195c34.118 0 61.871-27.874 61.871-62.172v-768.966c0-34.233-27.753-62.107-61.87-62.107zM288.1 800.407c-17.351 0-31.498-14.234-31.498-31.742v-768.966c0-17.473 14.147-31.678 31.498-31.678h459.195c17.357 0 31.441 14.205 31.441 31.678V768.664c0 17.507-14.084 31.742-31.44 31.742H288.098z m229.6-796.25c-22.346 0-40.478 18.218-40.478 40.593s18.132 40.595 40.478 40.595c22.348 0 40.474-18.22 40.474-40.595s-18.126-40.593-40.474-40.593z m0 50.758c-5.527 0-10.042-4.549-10.042-10.165 0-11.234 20.087-11.234 20.087 0-0.001 5.616-4.517 10.165-10.045 10.165z m217.945 59.79H297.015c-8.378 0-15.212 6.805-15.212 15.217V745.549c0 8.407 6.834 15.212 15.212 15.212h438.63c8.382 0 15.216-6.805 15.216-15.212V129.92c0-8.412-6.834-15.217-15.217-15.217z m-423.411 30.43h408.199V730.33h-408.2v-585.198z m0 0"  horiz-adv-x="1024" />

    
    <glyph glyph-name="gouwuche" unicode="&#59098;" d="M366.443391 11.588175c-47.76691 0-86.62901 38.863123-86.62901 86.642313 0 47.764863 38.862099 86.614683 86.62901 86.614683 47.76691 0 86.62901-38.84982 86.62901-86.614683C453.072401 50.451298 414.210301 11.588175 366.443391 11.588175zM366.443391 131.213693c-18.200524 0-32.995485-14.794961-32.995485-32.982182 0-18.201547 14.794961-33.010835 32.995485-33.010835s32.997532 14.809287 32.997532 33.010835C399.440923 116.418732 384.643915 131.213693 366.443391 131.213693zM787.488867 11.588175c-47.764863 0-86.62901 38.863123-86.62901 86.642313 0 47.764863 38.864146 86.614683 86.62901 86.614683 47.76691 0 86.62901-38.84982 86.62901-86.614683C874.117876 50.451298 835.254753 11.588175 787.488867 11.588175zM787.488867 131.213693c-18.199501 0-32.995485-14.794961-32.995485-32.982182 0-18.201547 14.795984-33.010835 32.995485-33.010835 18.200524 0 32.997532 14.809287 32.997532 33.010835C820.486398 116.418732 805.689391 131.213693 787.488867 131.213693zM787.488867 131.213693 366.443391 131.213693c-14.794961 0-26.814716 12.006452-26.814716 26.816762 0 14.808264 12.019755 26.814716 26.814716 26.814716L787.488867 184.845171c14.797008 0 26.816762-12.006452 26.816762-26.814716C814.305629 143.220145 802.285874 131.213693 787.488867 131.213693zM768.661056 249.777019l-409.524071 1.00898c-14.794961 0.038886-26.76355 12.071943-26.736944 26.882254 0.025583 14.794961 12.019755 26.750247 26.816762 26.750247 0.025583 0 0.025583 0 0.077771 0l403.971611-1.047866 75.683726 317.801043-552.116673-1.557472c-14.794961 0-26.814716 12.006452-26.814716 26.814716 0 14.810311 12.019755 26.816762 26.814716 26.816762l556.828998 0c16.025998 0 31.214932-7.306406 40.643676-19.535939 8.773827-11.405771 11.732206-25.833365 8.092305-39.569204l-78.091566-327.870376C808.857547 265.517515 790.552645 251.086851 768.661056 249.777019zM366.417809 250.785999c-12.045337 0-23.019273 8.196683-26.030863 20.426215L233.12092 708.808644l-78.640058 0c-14.797008 0-26.816762 12.007475-26.816762 26.816762 0 14.809287 12.019755 26.815739 26.816762 26.815739l120.750131 0 117.26782-478.447836c3.50994-14.390755-5.288446-28.91147-19.664875-32.434713C370.686019 251.035686 368.538099 250.785999 366.417809 250.785999zM366.443391 131.162528c-47.76691 0-86.62901 38.84675-86.62901 86.614683 0 47.77919 38.862099 86.641289 86.62901 86.641289 14.797008 0 26.816762-12.005428 26.816762-26.816762 0-14.808264-12.019755-26.814716-26.816762-26.814716-18.200524 0-32.995485-14.810311-32.995485-33.009811 0-18.187221 14.794961-32.982182 32.995485-32.982182 14.797008 0 26.816762-12.006452 26.816762-26.816762C393.260154 143.167956 381.240399 131.162528 366.443391 131.162528z"  horiz-adv-x="1024" />

    
    <glyph glyph-name="sevice" unicode="&#58897;" d="M40.277333 223.573333C18.090667 223.573333 0 241.664 0 264.192v43.349333c0 22.186667 18.090667 40.277333 40.277333 40.277334s40.277333-18.090667 40.277334-40.277334v-43.349333c0.341333-22.528-17.749333-40.618667-40.277334-40.618667zM983.722667 223.573333c-22.186667 0-40.277333 18.090667-40.277334 40.277334v43.349333c0 22.186667 18.090667 40.277333 40.277334 40.277333S1024 329.386667 1024 307.2v-43.349333c0-22.186667-18.090667-40.277333-40.277333-40.277334zM983.722667 267.264c-22.186667 0-40.277333 18.090667-40.277334 40.277333 0 237.909333-193.536 431.104-431.104 431.104S80.896 545.109333 80.896 307.541333c0-22.186667-18.090667-40.277333-40.277333-40.277333S0 285.354667 0 307.541333c0 282.282667 229.717333 512 512 512s512-229.717333 512-512c0-22.186667-18.090667-40.277333-40.277333-40.277333zM238.250667-51.541333h-197.973334c-22.186667 0-40.277333 18.090667-40.277333 40.277333V305.493333c0 22.186667 18.090667 40.277333 40.277333 40.277334h197.973334c22.186667 0 40.277333-18.090667 40.277333-40.277334v-316.757333c0-22.186667-18.090667-40.277333-40.277333-40.277333z m-157.354667 80.896H197.973333v235.861333H80.896v-235.861333zM983.722667-51.541333h-197.973334c-22.186667 0-40.277333 18.090667-40.277333 40.277333V305.493333c0 22.186667 18.090667 40.277333 40.277333 40.277334h197.973334c22.186667 0 40.277333-18.090667 40.277333-40.277334v-316.757333c0-22.186667-18.090667-40.277333-40.277333-40.277333zM826.026667 29.354667h117.077333v235.861333H826.026667v-235.861333z"  horiz-adv-x="1024" />

    
    <glyph glyph-name="iconfontcategoryfill" unicode="&#58946;" d="M288.393065 607.233651 83.166456 607.233651c-18.882623 0-34.206155 15.280527-34.206155 34.109824s15.323532 34.109824 34.206155 34.109824L288.391345 675.453299c18.882623 0 34.206155-15.280527 34.206155-34.109824S307.273969 607.233651 288.393065 607.233651L288.393065 607.233651zM280.117189 270.048864 83.166456 270.048864c-18.882623 0-34.206155 15.280527-34.206155 34.109824 0 18.831017 15.323532 34.109824 34.206155 34.109824L280.117189 338.268512c18.882623 0 34.206155-15.280527 34.206155-34.109824C314.325064 285.329391 298.999812 270.048864 280.117189 270.048864L280.117189 270.048864zM239.663271 438.998199 83.171617 438.998199c-18.886064 0-34.211316 15.263325-34.211316 34.149389 0 18.8551 15.325252 34.156269 34.211316 34.156269l156.489934 0c18.884344 0 34.211316-15.301169 34.211316-34.156269C273.874587 454.259804 258.547615 438.998199 239.663271 438.998199L239.663271 438.998199zM459.981185 94.915415 83.214622 94.915415c-18.908426 0-34.254321 15.270206-34.254321 34.156269s15.345894 34.156269 34.254321 34.156269L459.981185 163.227953c18.908426 0 34.254321-15.270206 34.254321-34.156269C494.235506 110.18562 478.891332 94.915415 459.981185 94.915415L459.981185 94.915415zM420.770972 469.88093c0 115.798629 94.407956 209.965757 210.564387 209.965757S841.899745 585.677839 841.899745 469.88093s-94.407956-209.965757-210.564387-209.965757S420.770972 354.082301 420.770972 469.88093L420.770972 469.88093 420.770972 469.88093zM967.735734 79.82411l-147.467491 192.5195c52.342212 49.834162 85.086198 119.860019 85.086198 197.418627 0 150.694584-122.968418 273.303481-274.139497 273.303481s-274.139497-122.608897-274.139497-273.303481 122.968418-273.303481 274.139497-273.303481c48.638624 0 94.287542 12.906652 133.962209 35.133342l147.943986-193.236823c6.691574-8.841822 16.969762-13.503561 27.24623-13.503561 7.291923 0 14.578686 2.270663 20.67335 7.051095C976.340169 43.493509 979.207741 64.885902 967.735734 79.82411L967.735734 79.82411 967.735734 79.82411zM778.654912 471.076468c0-80.964602-65.637629-146.603951-146.603951-146.603951s-146.603951 65.637629-146.603951 146.603951 65.637629 146.603951 146.603951 146.603951S778.654912 552.04107 778.654912 471.076468z"  horiz-adv-x="1024" />

    


  </font>
</defs>
</svg>
